<svg xmlns="http://www.w3.org/2000/svg" width="490.51776599616187" height="437.4213203572309"><rect id="backgroundrect" width="100%" height="100%" x="0" y="0" fill="none" stroke="none" style="" class=""/>
    
<g class="currentLayer" style=""><title>Layer 1</title><g fill="#00c5ba" id="svg_1" class="selected">
        <path d="M490.5588829994201,218.76064798235893 c0,-32.5 -40.7,-63.3 -103.1,-82.4 c14.4,-63.6 8,-114.2 -20.2,-130.4 c-6.5,-3.8 -14.1,-5.6 -22.4,-5.6 v22.3 c4.6,0 8.3,0.9 11.4,2.6 c13.6,7.8 19.5,37.5 14.9,75.7 c-1.1,9.4 -2.9,19.3 -5.1,29.4 c-19.6,-4.8 -41,-8.5 -63.5,-10.9 c-13.5,-18.5 -27.5,-35.3 -41.6,-50 c32.6,-30.3 63.2,-46.9 84,-46.9 V0.2606479823589325 c-27.5,0 -63.5,19.6 -99.9,53.6 c-36.4,-33.8 -72.4,-53.2 -99.9,-53.2 v22.3 c20.7,0 51.4,16.5 84,46.6 c-14,14.7 -28,31.4 -41.3,49.9 c-22.6,2.4 -44,6.1 -63.6,11 c-2.3,-10 -4,-19.7 -5.2,-29 c-4.7,-38.2 1.1,-67.9 14.6,-75.8 c3,-1.8 6.9,-2.6 11.5,-2.6 V0.7606479823589325 c-8.4,0 -16,1.8 -22.6,5.6 c-28.1,16.2 -34.4,66.7 -19.9,130.1 c-62.2,19.2 -102.7,49.9 -102.7,82.3 c0,32.5 40.7,63.3 103.1,82.4 c-14.4,63.6 -8,114.2 20.2,130.4 c6.5,3.8 14.1,5.6 22.5,5.6 c27.5,0 63.5,-19.6 99.9,-53.6 c36.4,33.8 72.4,53.2 99.9,53.2 c8.4,0 16,-1.8 22.6,-5.6 c28.1,-16.2 34.4,-66.7 19.9,-130.1 c62,-19.1 102.5,-49.9 102.5,-82.3 zm-130.2,-66.7 c-3.7,12.9 -8.3,26.2 -13.5,39.5 c-4.1,-8 -8.4,-16 -13.1,-24 c-4.6,-8 -9.5,-15.8 -14.4,-23.4 c14.2,2.1 27.9,4.7 41,7.9 zm-45.8,106.5 c-7.8,13.5 -15.8,26.3 -24.1,38.2 c-14.9,1.3 -30,2 -45.2,2 c-15.1,0 -30.2,-0.7000000000000006 -45,-1.9 c-8.3,-11.9 -16.4,-24.6 -24.2,-38 c-7.6,-13.1 -14.5,-26.4 -20.8,-39.8 c6.2,-13.4 13.2,-26.8 20.7,-39.9 c7.8,-13.5 15.8,-26.3 24.1,-38.2 c14.9,-1.3 30,-2 45.2,-2 c15.1,0 30.2,0.7000000000000006 45,1.9 c8.3,11.9 16.4,24.6 24.2,38 c7.6,13.1 14.5,26.4 20.8,39.8 c-6.3,13.4 -13.2,26.8 -20.7,39.9 zm32.3,-13 c5.4,13.4 10,26.8 13.8,39.8 c-13.1,3.2 -26.9,5.9 -41.2,8 c4.9,-7.7 9.8,-15.6 14.4,-23.7 c4.6,-8 8.9,-16.1 13,-24.1 zM245.45888299942015,352.26064798235893 c-9.3,-9.6 -18.6,-20.3 -27.8,-32 c9,0.4 18.2,0.7000000000000006 27.5,0.7000000000000006 c9.4,0 18.7,-0.2 27.8,-0.7000000000000006 c-9,11.7 -18.3,22.4 -27.5,32 zm-74.4,-58.9 c-14.2,-2.1 -27.9,-4.7 -41,-7.9 c3.7,-12.9 8.3,-26.2 13.5,-39.5 c4.1,8 8.4,16 13.1,24 c4.7,8 9.5,15.8 14.4,23.4 zM244.95888299942015,85.26064798235893 c9.3,9.6 18.6,20.3 27.8,32 c-9,-0.4 -18.2,-0.7000000000000006 -27.5,-0.7000000000000006 c-9.4,0 -18.7,0.2 -27.8,0.7000000000000006 c9,-11.7 18.3,-22.4 27.5,-32 zm-74,58.9 c-4.9,7.7 -9.8,15.6 -14.4,23.7 c-4.6,8 -8.9,16 -13,24 c-5.4,-13.4 -10,-26.8 -13.8,-39.8 c13.1,-3.1 26.9,-5.8 41.2,-7.9 zm-90.5,125.2 c-35.4,-15.1 -58.3,-34.9 -58.3,-50.6 c0,-15.7 22.9,-35.6 58.3,-50.6 c8.6,-3.7 18,-7 27.7,-10.1 c5.7,19.6 13.2,40 22.5,60.9 c-9.2,20.8 -16.6,41.1 -22.2,60.6 c-9.9,-3.1 -19.3,-6.5 -28,-10.2 zM134.25888299942017,412.26064798235893 c-13.6,-7.8 -19.5,-37.5 -14.9,-75.7 c1.1,-9.4 2.9,-19.3 5.1,-29.4 c19.6,4.8 41,8.5 63.5,10.9 c13.5,18.5 27.5,35.3 41.6,50 c-32.6,30.3 -63.2,46.9 -84,46.9 c-4.5,-0.1 -8.3,-1 -11.3,-2.7 zm237.2,-76.2 c4.7,38.2 -1.1,67.9 -14.6,75.8 c-3,1.8 -6.9,2.6 -11.5,2.6 c-20.7,0 -51.4,-16.5 -84,-46.6 c14,-14.7 28,-31.4 41.3,-49.9 c22.6,-2.4 44,-6.1 63.6,-11 c2.3,10.1 4.1,19.8 5.2,29.1 zm38.5,-66.7 c-8.6,3.7 -18,7 -27.7,10.1 c-5.7,-19.6 -13.2,-40 -22.5,-60.9 c9.2,-20.8 16.6,-41.1 22.2,-60.6 c9.9,3.1 19.3,6.5 28.1,10.2 c35.4,15.1 58.3,34.9 58.3,50.6 c-0.1,15.7 -23,35.6 -58.4,50.6 zM145.05888299942018,0.6606479823589383 z" id="svg_2"/>
        <circle cx="245.15887689590454" cy="218.76064798235893" r="45.70000076293945" id="svg_3"/>
        <path d="M344.75888299942017,0.3606479823589268 z" id="svg_4"/>
    </g></g></svg>