<svg xmlns="http://www.w3.org/2000/svg" viewBox="0 0 6.35 6.35"><path fill="#ffffff" d="M1.195.797c-.581 0-1.06.476-1.06 1.057v1.85c0 .58.479 1.056 1.06 1.056h3.17A1.06 1.06 0 0 0 5.42 3.704v-1.85A1.06 1.06 0 0 0 4.365.797zm.318 1.053h2.531a.265.265 0 0 1 .266.264.265.265 0 0 1-.266.263h-2.53a.265.265 0 0 1-.264-.263.265.265 0 0 1 .263-.264Zm0 1.056h1.588a.265.265 0 0 1 .264.266.265.265 0 0 1-.264.264H1.513a.265.265 0 0 1-.263-.264.265.265 0 0 1 .263-.266Z"/><path fill="#ffffff" d="M.665 4.942V6.08a.265.265 0 0 0 .438.201l1.496-1.283H1.005c-.119 0-.232-.023-.34-.056z"/><path fill="#ffffff" d="M1.985.004c-.392 0-.732.22-.914.54h3.497c.655 0 1.192.536 1.192 1.191v2.04c.273-.191.454-.507.454-.865V1.061A1.06 1.06 0 0 0 5.157.004z"/></svg>