<svg xmlns="http://www.w3.org/2000/svg" viewBox="0 0 32 32"><path fill="#ffffff" d="M22.962 13.643v7.138l.002.104c0 .509-.113.992-.315 1.424l.009-.021a2.661 2.661 0 0 1-1.716 1.421l-.018.004a5.621 5.621 0 0 1-1.325.216h-.012a2.339 2.339 0 0 1-1.145-4.44l.014-.006a5.157 5.157 0 0 1 1.239-.4l.033-.005c.472-.102.947-.191 1.417-.3a.775.775 0 0 0 .637-.64l.001-.004c.016-.071.025-.153.025-.236v-.005q0-3.402-.003-6.802a.93.93 0 0 0-.034-.238l.002.006a.36.36 0 0 0-.353-.293l-.028.001h.001a4.537 4.537 0 0 0-.623.088l.03-.005q-1.425.281-2.849.57l-4.622.935c-.02.004-.04.012-.06.016a.564.564 0 0 0-.487.615v-.002c-.002.052 0 .107 0 .162q-.004 4.877-.004 9.753l.002.119c0 .509-.099.995-.28 1.44l.009-.026a2.677 2.677 0 0 1-1.773 1.537l-.019.004c-.398.12-.858.197-1.333.215h-.01a2.3 2.3 0 0 1-2.397-1.916l-.002-.013a2.332 2.332 0 0 1 1.426-2.587l.016-.006a7.034 7.034 0 0 1 1.34-.381l.045-.007c.359-.075.719-.145 1.075-.221a.87.87 0 0 0 .75-.861l-.001-.033v.002-.187l.002-11.099V8.67c0-.161.019-.318.055-.467l-.003.014a.87.87 0 0 1 .677-.646l.005-.001c.319-.082.644-.14.967-.206.916-.187 1.832-.37 2.749-.555l2.837-.575 2.512-.504c.226-.052.508-.099.795-.13l.033-.003a.616.616 0 0 1 .692.602c.01.083.015.179.015.277v.002q.004 3.58 0 7.163zm8.026-4.986.001-.12c0-.928-.11-1.83-.317-2.695l.016.079a6.17 6.17 0 0 0-2.699-3.788l-.025-.015a6.19 6.19 0 0 0-2.308-.902l-.038-.005a12.532 12.532 0 0 0-1.94-.187h-.014c-.05-.004-.104-.012-.155-.016H8.485c-.19.012-.379.021-.569.032a8.731 8.731 0 0 0-2.801.519l.061-.019a6.28 6.28 0 0 0-3.565 3.433l-.015.041a6.805 6.805 0 0 0-.45 1.725l-.004.035c-.064.429-.109.938-.125 1.455v.02c0 .04-.009.077-.012.116v15.274c.012.175.021.354.034.53a8.202 8.202 0 0 0 .641 3.019l-.02-.054a6.25 6.25 0 0 0 3.997 3.49l.044.011c.471.138 1.021.24 1.588.283l.028.002c.694.066 1.387.075 2.083.075h13.784c.692 0 1.373-.046 2.041-.133l-.079.008a6.65 6.65 0 0 0 2.894-1.028l-.026.016a6.346 6.346 0 0 0 2.333-2.718l.016-.04a6.66 6.66 0 0 0 .457-1.616l.005-.039c.11-.69.173-1.485.173-2.294l-.002-.268v.013q-.004-7.123-.004-14.237z"/></svg>