<svg xmlns="http://www.w3.org/2000/svg" xml:space="preserve" viewBox="0 0 32 32"><path fill="#ffffff" d="m26.4 22-2.7-1.9-4.3-3-2.9-2-.1-.1c-.1 0-.2-.1-.2-.1h-.4c-.1 0-.2.1-.2.1h-.1l-2.9 2-4.3 3-2.7 2c-2 .2-3.6 1.9-3.6 4 0 2.2 1.8 4 4 4s4-1.8 4-4c0-1.4-.7-2.6-1.8-3.3l1.2-.9 4.3-3 1.3-.9v4.2c-1.7.4-3 2-3 3.9 0 2.2 1.8 4 4 4s4-1.8 4-4c0-1.9-1.3-3.4-3-3.9v-4.2l1.3.9 4.3 3 1.2.9c-1.1.7-1.8 1.9-1.8 3.3 0 2.2 1.8 4 4 4s4-1.8 4-4c0-2.1-1.6-3.8-3.6-4zM11 14h10c.3 0 .6-.1.8-.4.2-.2.3-.5.2-.8-.3-1.5-1.4-2.7-2.9-3.1-.4-.1-.7-.4-.8-.8.4-.5.7-1.2.7-1.9V5c0-1.7-1.3-3-3-3s-3 1.3-3 3v2c0 .7.3 1.4.7 1.9-.1.4-.4.7-.8.8-1.5.4-2.6 1.6-2.8 3.1-.1.3 0 .6.2.8.1.3.4.4.7.4z"/></svg>