<svg xmlns="http://www.w3.org/2000/svg" viewBox="0 0 24 24"><path fill="#ffffff" d="M20.89 9.78h-.65a1.16 1.16 0 0 1-1-.74V9a1.13 1.13 0 0 1 .22-1.26l.46-.46a1.13 1.13 0 0 0 0-1.58l-1.63-1.56a1.13 1.13 0 0 0-1.58 0l-.46.46a1.13 1.13 0 0 1-1.25.22 1.16 1.16 0 0 1-.74-1v-.71A1.11 1.11 0 0 0 13.11 2h-2.22a1.11 1.11 0 0 0-1.11 1.11v.65a1.16 1.16 0 0 1-.74 1H9a1.13 1.13 0 0 1-1.25-.16l-.46-.46a1.13 1.13 0 0 0-1.58 0L4.14 5.71a1.13 1.13 0 0 0 0 1.58l.46.46A1.13 1.13 0 0 1 4.82 9a1.16 1.16 0 0 1-1 .74h-.71A1.11 1.11 0 0 0 2 10.89v2.22a1.11 1.11 0 0 0 1.11 1.11h.65a1.16 1.16 0 0 1 1 .74 1.13 1.13 0 0 1-.22 1.26l-.46.46a1.13 1.13 0 0 0 0 1.58l1.57 1.57a1.13 1.13 0 0 0 1.58 0l.46-.46A1.13 1.13 0 0 1 9 19.18a1.16 1.16 0 0 1 .74 1v.65A1.11 1.11 0 0 0 10.89 22h2.22a1.11 1.11 0 0 0 1.11-1.11v-.65a1.16 1.16 0 0 1 .74-1 1.13 1.13 0 0 1 1.26.22l.46.46a1.13 1.13 0 0 0 1.58 0l1.57-1.57a1.13 1.13 0 0 0 0-1.58l-.46-.46a1.13 1.13 0 0 1-.19-1.31 1.16 1.16 0 0 1 1-.74h.65A1.11 1.11 0 0 0 22 13.11v-2.22a1.11 1.11 0 0 0-1.11-1.11ZM12 16a4 4 0 1 1 4-4 4 4 0 0 1-4 4Z"/></svg>